<svg xmlns="http://www.w3.org/2000/svg" viewBox="0 0 64 64" width="64" height="64">
  <rect width="64" height="64" rx="14" fill="#FDFAF4"/>
  <g transform="translate(0,4) scale(0.92) translate(2.8,0)" fill="none" stroke="#BE9E37" stroke-width="2.4" stroke-linecap="round" stroke-linejoin="round">
    <path d="M32 6c4.4 5.2 6.4 11 6.4 16.6 0 5.6-2 10.4-6.4 14.4-4.4-4-6.4-8.8-6.4-14.4C25.6 17 27.6 11.2 32 6Z"/>
    <path d="M32 37.4c-5-1.2-9-4-11.6-8.2-2.6-4.2-3.4-9-2.4-14.2 4.8 1.6 8.5 4.4 11 8.2 2.5 3.8 3.6 8.5 3 14.2Z"/>
    <path d="M32 37.4c5-1.2 9-4 11.6-8.2 2.6-4.2 3.4-9 2.4-14.2-4.8 1.6-8.5 4.4-11 8.2-2.5 3.8-3.6 8.5-3 14.2Z"/>
    <path d="M32 38c-6.2.6-11.6-.8-16-4.2-4.4-3.4-7-8.2-8-14.4 5.6-.4 10.6 1 14.8 4.2 4.2 3.2 7 7.9 9.2 14.4Z"/>
    <path d="M32 38c6.2.6 11.6-.8 16-4.2 4.4-3.4 7-8.2 8-14.4-5.6-.4-10.6 1-14.8 4.2C37 26.8 34.2 31.5 32 38Z"/>
    <path d="M32 38v16"/>
  </g>
</svg>
